<mxfile host="Electron" agent="Mozilla/5.0 (Macintosh; Intel Mac OS X 10_15_7) AppleWebKit/537.36 (KHTML, like Gecko) draw.io/26.0.9 Chrome/128.0.6613.186 Electron/32.2.5 Safari/537.36" version="26.0.9">
  <diagram name="system-design" id="sCHedO5sb3NCKmZcauj-">
    <mxGraphModel dx="2324" dy="1550" grid="1" gridSize="10" guides="1" tooltips="1" connect="1" arrows="1" fold="1" page="1" pageScale="1" pageWidth="1169" pageHeight="827" math="0" shadow="0">
      <root>
        <mxCell id="0" />
        <mxCell id="1" parent="0" />
        <mxCell id="3JaNWiiR6AFBt9iG92Yo-1" style="edgeStyle=none;curved=1;rounded=0;orthogonalLoop=1;jettySize=auto;html=1;entryX=0;entryY=0.5;entryDx=0;entryDy=0;fontSize=12;startSize=8;endSize=8;" edge="1" parent="1" target="3JaNWiiR6AFBt9iG92Yo-8" source="3JaNWiiR6AFBt9iG92Yo-2">
          <mxGeometry relative="1" as="geometry">
            <mxPoint x="60" y="330" as="sourcePoint" />
            <mxPoint x="110" y="315" as="targetPoint" />
          </mxGeometry>
        </mxCell>
        <mxCell id="3JaNWiiR6AFBt9iG92Yo-2" value="User" style="shape=umlActor;verticalLabelPosition=bottom;verticalAlign=top;html=1;outlineConnect=0;" vertex="1" parent="1">
          <mxGeometry x="20" y="306" width="30" height="60" as="geometry" />
        </mxCell>
        <mxCell id="3JaNWiiR6AFBt9iG92Yo-3" style="edgeStyle=none;curved=1;rounded=0;orthogonalLoop=1;jettySize=auto;html=1;fontSize=12;startSize=8;endSize=8;" edge="1" parent="1" source="3JaNWiiR6AFBt9iG92Yo-4" target="3JaNWiiR6AFBt9iG92Yo-5">
          <mxGeometry relative="1" as="geometry" />
        </mxCell>
        <mxCell id="3JaNWiiR6AFBt9iG92Yo-4" value="Car" style="shape=mxgraph.signs.transportation.car_4;html=1;pointerEvents=1;fillColor=#FFFFFF;strokeColor=#000000;verticalLabelPosition=bottom;verticalAlign=top;align=center;" vertex="1" parent="1">
          <mxGeometry x="1024.73" y="261.75" width="74.54" height="62.5" as="geometry" />
        </mxCell>
        <mxCell id="3JaNWiiR6AFBt9iG92Yo-5" value="Car sensors" style="whiteSpace=wrap;html=1;aspect=fixed;" vertex="1" parent="1">
          <mxGeometry x="1022" y="132" width="80" height="80" as="geometry" />
        </mxCell>
        <mxCell id="3JaNWiiR6AFBt9iG92Yo-6" value="Car Tracking Service" style="shape=cube;whiteSpace=wrap;html=1;boundedLbl=1;backgroundOutline=1;darkOpacity=0.05;darkOpacity2=0.1;" vertex="1" parent="1">
          <mxGeometry x="770" y="121" width="120" height="80" as="geometry" />
        </mxCell>
        <mxCell id="3JaNWiiR6AFBt9iG92Yo-7" style="edgeStyle=none;curved=1;rounded=0;orthogonalLoop=1;jettySize=auto;html=1;fontSize=12;startSize=8;endSize=8;entryX=0;entryY=0;entryDx=120;entryDy=50;entryPerimeter=0;" edge="1" parent="1" source="3JaNWiiR6AFBt9iG92Yo-5" target="3JaNWiiR6AFBt9iG92Yo-6">
          <mxGeometry relative="1" as="geometry">
            <mxPoint x="1273" y="177.5" as="targetPoint" />
          </mxGeometry>
        </mxCell>
        <mxCell id="3JaNWiiR6AFBt9iG92Yo-8" value="Load Balancer" style="rounded=0;whiteSpace=wrap;html=1;" vertex="1" parent="1">
          <mxGeometry x="110" y="306" width="120" height="60" as="geometry" />
        </mxCell>
        <mxCell id="3JaNWiiR6AFBt9iG92Yo-9" style="edgeStyle=none;curved=1;rounded=0;orthogonalLoop=1;jettySize=auto;html=1;fontSize=12;startSize=8;endSize=8;" edge="1" parent="1" source="3JaNWiiR6AFBt9iG92Yo-10" target="3JaNWiiR6AFBt9iG92Yo-15">
          <mxGeometry relative="1" as="geometry" />
        </mxCell>
        <mxCell id="3JaNWiiR6AFBt9iG92Yo-10" value="Car Booking Service" style="shape=cube;whiteSpace=wrap;html=1;boundedLbl=1;backgroundOutline=1;darkOpacity=0.05;darkOpacity2=0.1;" vertex="1" parent="1">
          <mxGeometry x="290" y="306" width="120" height="80" as="geometry" />
        </mxCell>
        <mxCell id="3JaNWiiR6AFBt9iG92Yo-11" value="&lt;div&gt;get cars nearby (read)&lt;/div&gt;lock car for ride (write)&lt;div&gt;start ride (write)&lt;br&gt;&lt;div&gt;finish ride (write)&lt;/div&gt;&lt;/div&gt;" style="edgeStyle=orthogonalEdgeStyle;rounded=0;orthogonalLoop=1;jettySize=auto;html=1;entryX=0;entryY=0.5;entryDx=0;entryDy=0;entryPerimeter=0;fontSize=12;startSize=8;endSize=8;startArrow=none;startFill=0;exitX=0.5;exitY=0;exitDx=0;exitDy=0;" edge="1" parent="1" source="3JaNWiiR6AFBt9iG92Yo-39" target="3JaNWiiR6AFBt9iG92Yo-20">
          <mxGeometry x="-0.4964" relative="1" as="geometry">
            <mxPoint as="offset" />
          </mxGeometry>
        </mxCell>
        <mxCell id="3JaNWiiR6AFBt9iG92Yo-12" style="edgeStyle=none;curved=1;rounded=0;orthogonalLoop=1;jettySize=auto;html=1;fontSize=12;startSize=8;endSize=8;entryX=0;entryY=0;entryDx=0;entryDy=30;entryPerimeter=0;exitX=1;exitY=0.5;exitDx=0;exitDy=0;" edge="1" parent="1" source="3JaNWiiR6AFBt9iG92Yo-8" target="3JaNWiiR6AFBt9iG92Yo-10">
          <mxGeometry relative="1" as="geometry">
            <mxPoint x="280" y="340" as="targetPoint" />
          </mxGeometry>
        </mxCell>
        <mxCell id="3JaNWiiR6AFBt9iG92Yo-13" style="edgeStyle=none;curved=1;rounded=0;orthogonalLoop=1;jettySize=auto;html=1;fontSize=12;startSize=8;endSize=8;entryX=0.5;entryY=1;entryDx=0;entryDy=0;" edge="1" parent="1" source="3JaNWiiR6AFBt9iG92Yo-14" target="3JaNWiiR6AFBt9iG92Yo-32">
          <mxGeometry relative="1" as="geometry" />
        </mxCell>
        <mxCell id="3JaNWiiR6AFBt9iG92Yo-14" value="Price Estimation Service" style="shape=cube;whiteSpace=wrap;html=1;boundedLbl=1;backgroundOutline=1;darkOpacity=0.05;darkOpacity2=0.1;" vertex="1" parent="1">
          <mxGeometry x="290" y="767" width="120" height="80" as="geometry" />
        </mxCell>
        <mxCell id="3JaNWiiR6AFBt9iG92Yo-15" value="Prices DB" style="shape=cylinder3;whiteSpace=wrap;html=1;boundedLbl=1;backgroundOutline=1;size=15;" vertex="1" parent="1">
          <mxGeometry x="290" y="577.5" width="120" height="110" as="geometry" />
        </mxCell>
        <mxCell id="3JaNWiiR6AFBt9iG92Yo-16" value="Prices Cache&lt;div&gt;(Redis)&lt;/div&gt;" style="whiteSpace=wrap;html=1;aspect=fixed;" vertex="1" parent="1">
          <mxGeometry x="310" y="440" width="80" height="80" as="geometry" />
        </mxCell>
        <mxCell id="3JaNWiiR6AFBt9iG92Yo-17" value="" style="endArrow=classic;html=1;rounded=0;fontSize=12;startSize=8;endSize=8;curved=1;entryX=0.75;entryY=1;entryDx=0;entryDy=0;" edge="1" parent="1" target="3JaNWiiR6AFBt9iG92Yo-16">
          <mxGeometry width="50" height="50" relative="1" as="geometry">
            <mxPoint x="370" y="577" as="sourcePoint" />
            <mxPoint x="440" y="460" as="targetPoint" />
          </mxGeometry>
        </mxCell>
        <mxCell id="3JaNWiiR6AFBt9iG92Yo-18" value="Change&lt;div&gt;Data&lt;/div&gt;&lt;div&gt;Capture&lt;/div&gt;" style="text;html=1;align=center;verticalAlign=middle;whiteSpace=wrap;rounded=0;" vertex="1" parent="1">
          <mxGeometry x="380" y="530" width="60" height="40" as="geometry" />
        </mxCell>
        <mxCell id="3JaNWiiR6AFBt9iG92Yo-19" value="" style="group" vertex="1" connectable="0" parent="1">
          <mxGeometry x="486" y="-57" width="120" height="140" as="geometry" />
        </mxCell>
        <mxCell id="3JaNWiiR6AFBt9iG92Yo-20" value="Cars DB" style="shape=cylinder3;whiteSpace=wrap;html=1;boundedLbl=1;backgroundOutline=1;size=15;" vertex="1" parent="3JaNWiiR6AFBt9iG92Yo-19">
          <mxGeometry width="120" height="110" as="geometry" />
        </mxCell>
        <mxCell id="3JaNWiiR6AFBt9iG92Yo-21" value="PostgreSQL" style="text;html=1;align=center;verticalAlign=middle;whiteSpace=wrap;rounded=0;" vertex="1" parent="3JaNWiiR6AFBt9iG92Yo-19">
          <mxGeometry x="30" y="110" width="60" height="30" as="geometry" />
        </mxCell>
        <mxCell id="3JaNWiiR6AFBt9iG92Yo-22" style="edgeStyle=none;curved=1;rounded=0;orthogonalLoop=1;jettySize=auto;html=1;fontSize=12;startSize=8;endSize=8;entryX=0;entryY=0;entryDx=0;entryDy=0;entryPerimeter=0;exitX=1;exitY=1;exitDx=0;exitDy=-15;exitPerimeter=0;startArrow=classic;startFill=1;endArrow=none;" edge="1" parent="1" source="3JaNWiiR6AFBt9iG92Yo-25" target="3JaNWiiR6AFBt9iG92Yo-14">
          <mxGeometry relative="1" as="geometry">
            <mxPoint x="290" y="750" as="targetPoint" />
          </mxGeometry>
        </mxCell>
        <mxCell id="3JaNWiiR6AFBt9iG92Yo-23" value="" style="group" vertex="1" connectable="0" parent="1">
          <mxGeometry x="150" y="500" width="120" height="195" as="geometry" />
        </mxCell>
        <mxCell id="3JaNWiiR6AFBt9iG92Yo-24" value="" style="group" vertex="1" connectable="0" parent="3JaNWiiR6AFBt9iG92Yo-23">
          <mxGeometry x="-60" y="75" width="120" height="140" as="geometry" />
        </mxCell>
        <mxCell id="3JaNWiiR6AFBt9iG92Yo-25" value="Users DB" style="shape=cylinder3;whiteSpace=wrap;html=1;boundedLbl=1;backgroundOutline=1;size=15;" vertex="1" parent="3JaNWiiR6AFBt9iG92Yo-24">
          <mxGeometry width="120" height="110" as="geometry" />
        </mxCell>
        <mxCell id="3JaNWiiR6AFBt9iG92Yo-26" value="PostgreSQL" style="text;html=1;align=center;verticalAlign=middle;whiteSpace=wrap;rounded=0;" vertex="1" parent="3JaNWiiR6AFBt9iG92Yo-24">
          <mxGeometry x="30" y="110" width="60" height="30" as="geometry" />
        </mxCell>
        <mxCell id="3JaNWiiR6AFBt9iG92Yo-27" value="Ride Tracking Service" style="shape=cube;whiteSpace=wrap;html=1;boundedLbl=1;backgroundOutline=1;darkOpacity=0.05;darkOpacity2=0.1;" vertex="1" parent="1">
          <mxGeometry x="770" y="504" width="120" height="80" as="geometry" />
        </mxCell>
        <mxCell id="3JaNWiiR6AFBt9iG92Yo-28" style="edgeStyle=none;curved=1;rounded=0;orthogonalLoop=1;jettySize=auto;html=1;fontSize=12;startSize=8;endSize=8;" edge="1" parent="1" source="3JaNWiiR6AFBt9iG92Yo-62" target="3JaNWiiR6AFBt9iG92Yo-37">
          <mxGeometry relative="1" as="geometry" />
        </mxCell>
        <mxCell id="3JaNWiiR6AFBt9iG92Yo-29" style="edgeStyle=none;curved=1;rounded=0;orthogonalLoop=1;jettySize=auto;html=1;entryX=0.5;entryY=0;entryDx=0;entryDy=0;entryPerimeter=0;fontSize=12;startSize=8;endSize=8;" edge="1" parent="1" source="3JaNWiiR6AFBt9iG92Yo-27" target="3JaNWiiR6AFBt9iG92Yo-34">
          <mxGeometry relative="1" as="geometry" />
        </mxCell>
        <mxCell id="3JaNWiiR6AFBt9iG92Yo-30" style="edgeStyle=none;curved=1;rounded=0;orthogonalLoop=1;jettySize=auto;html=1;entryX=0.145;entryY=0;entryDx=0;entryDy=4.35;entryPerimeter=0;fontSize=12;startSize=8;endSize=8;exitX=1;exitY=1;exitDx=0;exitDy=0;exitPerimeter=0;startArrow=none;startFill=0;" edge="1" parent="1" source="3JaNWiiR6AFBt9iG92Yo-10" target="3JaNWiiR6AFBt9iG92Yo-34">
          <mxGeometry relative="1" as="geometry" />
        </mxCell>
        <mxCell id="3JaNWiiR6AFBt9iG92Yo-31" style="edgeStyle=none;curved=1;rounded=0;orthogonalLoop=1;jettySize=auto;html=1;entryX=0.855;entryY=0;entryDx=0;entryDy=4.35;entryPerimeter=0;fontSize=12;startSize=8;endSize=8;exitX=0;exitY=0;exitDx=20;exitDy=80;exitPerimeter=0;startArrow=none;startFill=0;" edge="1" parent="1" source="3JaNWiiR6AFBt9iG92Yo-10" target="3JaNWiiR6AFBt9iG92Yo-25">
          <mxGeometry relative="1" as="geometry" />
        </mxCell>
        <mxCell id="3JaNWiiR6AFBt9iG92Yo-32" value="PostgreSQL" style="text;html=1;align=center;verticalAlign=middle;whiteSpace=wrap;rounded=0;" vertex="1" parent="1">
          <mxGeometry x="320" y="687.5" width="60" height="30" as="geometry" />
        </mxCell>
        <mxCell id="3JaNWiiR6AFBt9iG92Yo-33" value="" style="group" vertex="1" connectable="0" parent="1">
          <mxGeometry x="770" y="648.5" width="120" height="140" as="geometry" />
        </mxCell>
        <mxCell id="3JaNWiiR6AFBt9iG92Yo-34" value="Rides DB" style="shape=cylinder3;whiteSpace=wrap;html=1;boundedLbl=1;backgroundOutline=1;size=15;" vertex="1" parent="3JaNWiiR6AFBt9iG92Yo-33">
          <mxGeometry width="120" height="110" as="geometry" />
        </mxCell>
        <mxCell id="3JaNWiiR6AFBt9iG92Yo-35" value="PostgreSQL" style="text;html=1;align=center;verticalAlign=middle;whiteSpace=wrap;rounded=0;" vertex="1" parent="3JaNWiiR6AFBt9iG92Yo-33">
          <mxGeometry x="30" y="110" width="60" height="30" as="geometry" />
        </mxCell>
        <mxCell id="3JaNWiiR6AFBt9iG92Yo-36" value="" style="edgeStyle=none;curved=1;rounded=0;orthogonalLoop=1;jettySize=auto;html=1;fontSize=12;startSize=8;endSize=8;" edge="1" parent="1" target="3JaNWiiR6AFBt9iG92Yo-27">
          <mxGeometry relative="1" as="geometry">
            <mxPoint x="830" y="475" as="sourcePoint" />
          </mxGeometry>
        </mxCell>
        <mxCell id="3JaNWiiR6AFBt9iG92Yo-37" value="Kafka Queue" style="sketch=0;outlineConnect=0;fontColor=#232F3E;gradientColor=none;strokeColor=#232F3E;fillColor=#ffffff;dashed=0;verticalLabelPosition=bottom;verticalAlign=top;align=center;html=1;fontSize=12;fontStyle=0;aspect=fixed;shape=mxgraph.aws4.resourceIcon;resIcon=mxgraph.aws4.queue;" vertex="1" parent="1">
          <mxGeometry x="800" y="385" width="60" height="60" as="geometry" />
        </mxCell>
        <mxCell id="3JaNWiiR6AFBt9iG92Yo-38" value="" style="edgeStyle=orthogonalEdgeStyle;rounded=0;orthogonalLoop=1;jettySize=auto;html=1;entryX=0.5;entryY=1;entryDx=0;entryDy=0;fontSize=12;startSize=8;endSize=8;startArrow=none;startFill=0;exitX=0;exitY=0;exitDx=50;exitDy=0;exitPerimeter=0;" edge="1" parent="1" source="3JaNWiiR6AFBt9iG92Yo-10" target="3JaNWiiR6AFBt9iG92Yo-39">
          <mxGeometry x="-0.3295" relative="1" as="geometry">
            <mxPoint x="340" y="310" as="sourcePoint" />
            <mxPoint x="585" y="-55" as="targetPoint" />
            <mxPoint y="1" as="offset" />
          </mxGeometry>
        </mxCell>
        <mxCell id="3JaNWiiR6AFBt9iG92Yo-39" value="Cached available cars nearby&lt;div&gt;(Redis)&lt;/div&gt;" style="whiteSpace=wrap;html=1;aspect=fixed;" vertex="1" parent="1">
          <mxGeometry x="300" y="130" width="80" height="80" as="geometry" />
        </mxCell>
        <mxCell id="3JaNWiiR6AFBt9iG92Yo-40" value="Cars DB" style="swimlane;fontStyle=0;childLayout=stackLayout;horizontal=1;startSize=30;horizontalStack=0;resizeParent=1;resizeParentMax=0;resizeLast=0;collapsible=1;marginBottom=0;whiteSpace=wrap;html=1;direction=east;separatorColor=#000000;glass=0;fillColor=#E6E6E6;swimlaneFillColor=default;strokeWidth=1;perimeterSpacing=0;noLabel=0;" vertex="1" parent="1">
          <mxGeometry x="620" y="-86" width="230" height="156" as="geometry">
            <mxRectangle x="740" y="-170" width="60" height="30" as="alternateBounds" />
          </mxGeometry>
        </mxCell>
        <mxCell id="3JaNWiiR6AFBt9iG92Yo-41" value="id" style="text;strokeColor=default;fillColor=none;align=left;verticalAlign=middle;spacingLeft=4;spacingRight=4;overflow=hidden;points=[[0,0.5],[1,0.5]];portConstraint=eastwest;rotatable=0;whiteSpace=wrap;html=1;" vertex="1" parent="3JaNWiiR6AFBt9iG92Yo-40">
          <mxGeometry y="30" width="230" height="30" as="geometry" />
        </mxCell>
        <mxCell id="3JaNWiiR6AFBt9iG92Yo-42" value="location" style="text;strokeColor=default;fillColor=none;align=left;verticalAlign=middle;spacingLeft=4;spacingRight=4;overflow=hidden;points=[[0,0.5],[1,0.5]];portConstraint=eastwest;rotatable=0;whiteSpace=wrap;html=1;glass=0;" vertex="1" parent="3JaNWiiR6AFBt9iG92Yo-40">
          <mxGeometry y="60" width="230" height="30" as="geometry" />
        </mxCell>
        <mxCell id="3JaNWiiR6AFBt9iG92Yo-43" value="ride_id: NULL or foreign key (Rides DB)" style="text;strokeColor=none;fillColor=none;align=left;verticalAlign=middle;spacingLeft=4;spacingRight=4;overflow=hidden;points=[[0,0.5],[1,0.5]];portConstraint=eastwest;rotatable=0;whiteSpace=wrap;html=1;glass=0;" vertex="1" parent="3JaNWiiR6AFBt9iG92Yo-40">
          <mxGeometry y="90" width="230" height="30" as="geometry" />
        </mxCell>
        <mxCell id="3JaNWiiR6AFBt9iG92Yo-44" value="status (service, available, booked)" style="text;strokeColor=default;fillColor=none;align=left;verticalAlign=middle;spacingLeft=4;spacingRight=4;overflow=hidden;points=[[0,0.5],[1,0.5]];portConstraint=eastwest;rotatable=0;whiteSpace=wrap;html=1;glass=0;" vertex="1" parent="3JaNWiiR6AFBt9iG92Yo-40">
          <mxGeometry y="120" width="230" height="36" as="geometry" />
        </mxCell>
        <mxCell id="3JaNWiiR6AFBt9iG92Yo-45" value="Rides DB" style="swimlane;fontStyle=0;childLayout=stackLayout;horizontal=1;startSize=30;horizontalStack=0;resizeParent=1;resizeParentMax=0;resizeLast=0;collapsible=1;marginBottom=0;whiteSpace=wrap;html=1;direction=east;separatorColor=#000000;glass=0;fillColor=#E6E6E6;swimlaneFillColor=default;strokeWidth=1;perimeterSpacing=0;noLabel=0;" vertex="1" parent="1">
          <mxGeometry x="905" y="617" width="230" height="210" as="geometry">
            <mxRectangle x="740" y="-170" width="60" height="30" as="alternateBounds" />
          </mxGeometry>
        </mxCell>
        <mxCell id="3JaNWiiR6AFBt9iG92Yo-46" value="id" style="text;strokeColor=default;fillColor=none;align=left;verticalAlign=middle;spacingLeft=4;spacingRight=4;overflow=hidden;points=[[0,0.5],[1,0.5]];portConstraint=eastwest;rotatable=0;whiteSpace=wrap;html=1;" vertex="1" parent="3JaNWiiR6AFBt9iG92Yo-45">
          <mxGeometry y="30" width="230" height="30" as="geometry" />
        </mxCell>
        <mxCell id="3JaNWiiR6AFBt9iG92Yo-47" value="start_time" style="text;strokeColor=default;fillColor=none;align=left;verticalAlign=middle;spacingLeft=4;spacingRight=4;overflow=hidden;points=[[0,0.5],[1,0.5]];portConstraint=eastwest;rotatable=0;whiteSpace=wrap;html=1;glass=0;" vertex="1" parent="3JaNWiiR6AFBt9iG92Yo-45">
          <mxGeometry y="60" width="230" height="30" as="geometry" />
        </mxCell>
        <mxCell id="3JaNWiiR6AFBt9iG92Yo-48" value="finish_time" style="text;strokeColor=none;fillColor=none;align=left;verticalAlign=middle;spacingLeft=4;spacingRight=4;overflow=hidden;points=[[0,0.5],[1,0.5]];portConstraint=eastwest;rotatable=0;whiteSpace=wrap;html=1;glass=0;" vertex="1" parent="3JaNWiiR6AFBt9iG92Yo-45">
          <mxGeometry y="90" width="230" height="30" as="geometry" />
        </mxCell>
        <mxCell id="3JaNWiiR6AFBt9iG92Yo-49" value="distance_km" style="text;strokeColor=default;fillColor=none;align=left;verticalAlign=middle;spacingLeft=4;spacingRight=4;overflow=hidden;points=[[0,0.5],[1,0.5]];portConstraint=eastwest;rotatable=0;whiteSpace=wrap;html=1;glass=0;" vertex="1" parent="3JaNWiiR6AFBt9iG92Yo-45">
          <mxGeometry y="120" width="230" height="30" as="geometry" />
        </mxCell>
        <mxCell id="3JaNWiiR6AFBt9iG92Yo-50" value="user_id: foreign key (Users DB)" style="text;strokeColor=none;fillColor=none;align=left;verticalAlign=middle;spacingLeft=4;spacingRight=4;overflow=hidden;points=[[0,0.5],[1,0.5]];portConstraint=eastwest;rotatable=0;whiteSpace=wrap;html=1;glass=0;" vertex="1" parent="3JaNWiiR6AFBt9iG92Yo-45">
          <mxGeometry y="150" width="230" height="30" as="geometry" />
        </mxCell>
        <mxCell id="3JaNWiiR6AFBt9iG92Yo-51" value="status (ongoing, finished, payed)" style="text;strokeColor=default;fillColor=none;align=left;verticalAlign=middle;spacingLeft=4;spacingRight=4;overflow=hidden;points=[[0,0.5],[1,0.5]];portConstraint=eastwest;rotatable=0;whiteSpace=wrap;html=1;glass=0;" vertex="1" parent="3JaNWiiR6AFBt9iG92Yo-45">
          <mxGeometry y="180" width="230" height="30" as="geometry" />
        </mxCell>
        <mxCell id="3JaNWiiR6AFBt9iG92Yo-53" value="Users DB" style="swimlane;fontStyle=0;childLayout=stackLayout;horizontal=1;startSize=30;horizontalStack=0;resizeParent=1;resizeParentMax=0;resizeLast=0;collapsible=1;marginBottom=0;whiteSpace=wrap;html=1;direction=east;separatorColor=#000000;glass=0;fillColor=#E6E6E6;swimlaneFillColor=default;strokeWidth=1;perimeterSpacing=0;noLabel=0;" vertex="1" parent="1">
          <mxGeometry x="-160" y="545" width="230" height="150" as="geometry">
            <mxRectangle x="740" y="-170" width="60" height="30" as="alternateBounds" />
          </mxGeometry>
        </mxCell>
        <mxCell id="3JaNWiiR6AFBt9iG92Yo-54" value="id" style="text;strokeColor=default;fillColor=none;align=left;verticalAlign=middle;spacingLeft=4;spacingRight=4;overflow=hidden;points=[[0,0.5],[1,0.5]];portConstraint=eastwest;rotatable=0;whiteSpace=wrap;html=1;" vertex="1" parent="3JaNWiiR6AFBt9iG92Yo-53">
          <mxGeometry y="30" width="230" height="30" as="geometry" />
        </mxCell>
        <mxCell id="3JaNWiiR6AFBt9iG92Yo-55" value="email" style="text;strokeColor=default;fillColor=none;align=left;verticalAlign=middle;spacingLeft=4;spacingRight=4;overflow=hidden;points=[[0,0.5],[1,0.5]];portConstraint=eastwest;rotatable=0;whiteSpace=wrap;html=1;glass=0;" vertex="1" parent="3JaNWiiR6AFBt9iG92Yo-53">
          <mxGeometry y="60" width="230" height="30" as="geometry" />
        </mxCell>
        <mxCell id="3JaNWiiR6AFBt9iG92Yo-56" value="password" style="text;strokeColor=none;fillColor=none;align=left;verticalAlign=middle;spacingLeft=4;spacingRight=4;overflow=hidden;points=[[0,0.5],[1,0.5]];portConstraint=eastwest;rotatable=0;whiteSpace=wrap;html=1;glass=0;" vertex="1" parent="3JaNWiiR6AFBt9iG92Yo-53">
          <mxGeometry y="90" width="230" height="30" as="geometry" />
        </mxCell>
        <mxCell id="3JaNWiiR6AFBt9iG92Yo-57" value="payment details" style="text;strokeColor=default;fillColor=none;align=left;verticalAlign=middle;spacingLeft=4;spacingRight=4;overflow=hidden;points=[[0,0.5],[1,0.5]];portConstraint=eastwest;rotatable=0;whiteSpace=wrap;html=1;glass=0;" vertex="1" parent="3JaNWiiR6AFBt9iG92Yo-53">
          <mxGeometry y="120" width="230" height="30" as="geometry" />
        </mxCell>
        <mxCell id="3JaNWiiR6AFBt9iG92Yo-58" value="Prices DB" style="swimlane;fontStyle=0;childLayout=stackLayout;horizontal=1;startSize=30;horizontalStack=0;resizeParent=1;resizeParentMax=0;resizeLast=0;collapsible=1;marginBottom=0;whiteSpace=wrap;html=1;direction=east;separatorColor=#000000;glass=0;fillColor=#E6E6E6;swimlaneFillColor=default;strokeWidth=1;perimeterSpacing=0;noLabel=0;" vertex="1" parent="1">
          <mxGeometry x="427" y="589.5" width="230" height="90" as="geometry">
            <mxRectangle x="424" y="592" width="60" height="30" as="alternateBounds" />
          </mxGeometry>
        </mxCell>
        <mxCell id="3JaNWiiR6AFBt9iG92Yo-59" value="location" style="text;strokeColor=default;fillColor=none;align=left;verticalAlign=middle;spacingLeft=4;spacingRight=4;overflow=hidden;points=[[0,0.5],[1,0.5]];portConstraint=eastwest;rotatable=0;whiteSpace=wrap;html=1;" vertex="1" parent="3JaNWiiR6AFBt9iG92Yo-58">
          <mxGeometry y="30" width="230" height="30" as="geometry" />
        </mxCell>
        <mxCell id="3JaNWiiR6AFBt9iG92Yo-60" value="price" style="text;strokeColor=default;fillColor=none;align=left;verticalAlign=middle;spacingLeft=4;spacingRight=4;overflow=hidden;points=[[0,0.5],[1,0.5]];portConstraint=eastwest;rotatable=0;whiteSpace=wrap;html=1;glass=0;" vertex="1" parent="3JaNWiiR6AFBt9iG92Yo-58">
          <mxGeometry y="60" width="230" height="30" as="geometry" />
        </mxCell>
        <mxCell id="3JaNWiiR6AFBt9iG92Yo-61" value="" style="edgeStyle=none;curved=1;rounded=0;orthogonalLoop=1;jettySize=auto;html=1;fontSize=12;startSize=8;endSize=8;" edge="1" parent="1" source="3JaNWiiR6AFBt9iG92Yo-6" target="3JaNWiiR6AFBt9iG92Yo-62">
          <mxGeometry relative="1" as="geometry">
            <mxPoint x="830" y="280" as="sourcePoint" />
            <mxPoint x="830" y="385" as="targetPoint" />
          </mxGeometry>
        </mxCell>
        <mxCell id="3JaNWiiR6AFBt9iG92Yo-62" value="Cached cars with active ride&lt;div&gt;(Redis)&lt;/div&gt;" style="whiteSpace=wrap;html=1;aspect=fixed;" vertex="1" parent="1">
          <mxGeometry x="790" y="253" width="80" height="80" as="geometry" />
        </mxCell>
        <mxCell id="3JaNWiiR6AFBt9iG92Yo-63" value="Change&lt;div&gt;Data&lt;/div&gt;&lt;div&gt;Capture&lt;/div&gt;" style="text;html=1;align=center;verticalAlign=middle;whiteSpace=wrap;rounded=0;" vertex="1" parent="1">
          <mxGeometry x="435" y="93" width="60" height="40" as="geometry" />
        </mxCell>
        <mxCell id="3JaNWiiR6AFBt9iG92Yo-64" style="edgeStyle=none;curved=1;rounded=0;orthogonalLoop=1;jettySize=auto;html=1;entryX=1;entryY=0;entryDx=0;entryDy=0;fontSize=12;startSize=8;endSize=8;" edge="1" parent="1" source="3JaNWiiR6AFBt9iG92Yo-20" target="3JaNWiiR6AFBt9iG92Yo-39">
          <mxGeometry relative="1" as="geometry" />
        </mxCell>
      </root>
    </mxGraphModel>
  </diagram>
</mxfile>
